<?xml version="1.0" standalone="no"?>
<!DOCTYPE svg PUBLIC "-//W3C//DTD SVG 1.1//EN" "http://www.w3.org/Graphics/SVG/1.1/DTD/svg11.dtd">
<svg version="1.1" width="1200" height="598" onload="init(evt)" viewBox="0 0 1200 598" xmlns="http://www.w3.org/2000/svg" xmlns:xlink="http://www.w3.org/1999/xlink">
<style type="text/css">
	text { font-family:Verdana; font-size:12px; fill:rgb(0,0,0); }
	#search { opacity:0.1; cursor:pointer; }
	#search:hover, #search.show { opacity:1; }
	#subtitle { text-anchor:middle; font-color:rgb(160,160,160); }
	#title { text-anchor:middle; font-size:17px}
	#unzoom { cursor:pointer; }
	#frames > *:hover { stroke:black; stroke-width:0.5; cursor:pointer; }
	.hide { display:none; }
	.parent { opacity:0.5; }
</style>
<script type="text/ecmascript">
<![CDATA[
	"use strict";
	var details, searchbtn, unzoombtn, matchedtxt, svg, searching;
	function init(evt) {
		details = document.getElementById("details").firstChild;
		searchbtn = document.getElementById("search");
		unzoombtn = document.getElementById("unzoom");
		matchedtxt = document.getElementById("matched");
		svg = document.getElementsByTagName("svg")[0];
		searching = 0;
	}

	window.addEventListener("click", function(e) {
		var target = find_group(e.target);
		if (target) {
			if (target.nodeName == "a") {
				if (e.ctrlKey === false) return;
				e.preventDefault();
			}
			if (target.classList.contains("parent")) unzoom();
			zoom(target);
		}
		else if (e.target.id == "unzoom") unzoom();
		else if (e.target.id == "search") search_prompt();
	}, false)

	// mouse-over for info
	// show
	window.addEventListener("mouseover", function(e) {
		var target = find_group(e.target);
		if (target) details.nodeValue = "Function: " + g_to_text(target);
	}, false)

	// clear
	window.addEventListener("mouseout", function(e) {
		var target = find_group(e.target);
		if (target) details.nodeValue = ' ';
	}, false)

	// ctrl-F for search
	window.addEventListener("keydown",function (e) {
		if (e.keyCode === 114 || (e.ctrlKey && e.keyCode === 70)) {
			e.preventDefault();
			search_prompt();
		}
	}, false)

	// functions
	function find_child(node, selector) {
		var children = node.querySelectorAll(selector);
		if (children.length) return children[0];
		return;
	}
	function find_group(node) {
		var parent = node.parentElement;
		if (!parent) return;
		if (parent.id == "frames") return node;
		return find_group(parent);
	}
	function orig_save(e, attr, val) {
		if (e.attributes["_orig_" + attr] != undefined) return;
		if (e.attributes[attr] == undefined) return;
		if (val == undefined) val = e.attributes[attr].value;
		e.setAttribute("_orig_" + attr, val);
	}
	function orig_load(e, attr) {
		if (e.attributes["_orig_"+attr] == undefined) return;
		e.attributes[attr].value = e.attributes["_orig_" + attr].value;
		e.removeAttribute("_orig_"+attr);
	}
	function g_to_text(e) {
		var text = find_child(e, "title").firstChild.nodeValue;
		return (text)
	}
	function g_to_func(e) {
		var func = g_to_text(e);
		// if there's any manipulation we want to do to the function
		// name before it's searched, do it here before returning.
		return (func);
	}
	function update_text(e) {
		var r = find_child(e, "rect");
		var t = find_child(e, "text");
		var w = parseFloat(r.attributes.width.value) -3;
		var txt = find_child(e, "title").textContent.replace(/\([^(]*\)$/,"");
		t.attributes.x.value = parseFloat(r.attributes.x.value) + 3;

		// Smaller than this size won't fit anything
		if (w < 2 * 12 * 0.59) {
			t.textContent = "";
			return;
		}

		t.textContent = txt;
		// Fit in full text width
		if (/^ *$/.test(txt) || t.getSubStringLength(0, txt.length) < w)
			return;

		for (var x = txt.length - 2; x > 0; x--) {
			if (t.getSubStringLength(0, x + 2) <= w) {
				t.textContent = txt.substring(0, x) + "..";
				return;
			}
		}
		t.textContent = "";
	}

	// zoom
	function zoom_reset(e) {
		if (e.attributes != undefined) {
			orig_load(e, "x");
			orig_load(e, "width");
		}
		if (e.childNodes == undefined) return;
		for (var i = 0, c = e.childNodes; i < c.length; i++) {
			zoom_reset(c[i]);
		}
	}
	function zoom_child(e, x, ratio) {
		if (e.attributes != undefined) {
			if (e.attributes.x != undefined) {
				orig_save(e, "x");
				e.attributes.x.value = (parseFloat(e.attributes.x.value) - x - 10) * ratio + 10;
				if (e.tagName == "text")
					e.attributes.x.value = find_child(e.parentNode, "rect[x]").attributes.x.value + 3;
			}
			if (e.attributes.width != undefined) {
				orig_save(e, "width");
				e.attributes.width.value = parseFloat(e.attributes.width.value) * ratio;
			}
		}

		if (e.childNodes == undefined) return;
		for (var i = 0, c = e.childNodes; i < c.length; i++) {
			zoom_child(c[i], x - 10, ratio);
		}
	}
	function zoom_parent(e) {
		if (e.attributes) {
			if (e.attributes.x != undefined) {
				orig_save(e, "x");
				e.attributes.x.value = 10;
			}
			if (e.attributes.width != undefined) {
				orig_save(e, "width");
				e.attributes.width.value = parseInt(svg.width.baseVal.value) - (10 * 2);
			}
		}
		if (e.childNodes == undefined) return;
		for (var i = 0, c = e.childNodes; i < c.length; i++) {
			zoom_parent(c[i]);
		}
	}
	function zoom(node) {
		var attr = find_child(node, "rect").attributes;
		var width = parseFloat(attr.width.value);
		var xmin = parseFloat(attr.x.value);
		var xmax = parseFloat(xmin + width);
		var ymin = parseFloat(attr.y.value);
		var ratio = (svg.width.baseVal.value - 2 * 10) / width;

		// XXX: Workaround for JavaScript float issues (fix me)
		var fudge = 0.0001;

		unzoombtn.classList.remove("hide");

		var el = document.getElementById("frames").children;
		for (var i = 0; i < el.length; i++) {
			var e = el[i];
			var a = find_child(e, "rect").attributes;
			var ex = parseFloat(a.x.value);
			var ew = parseFloat(a.width.value);
			var upstack;
			// Is it an ancestor
			if (0 == 0) {
				upstack = parseFloat(a.y.value) > ymin;
			} else {
				upstack = parseFloat(a.y.value) < ymin;
			}
			if (upstack) {
				// Direct ancestor
				if (ex <= xmin && (ex+ew+fudge) >= xmax) {
					e.classList.add("parent");
					zoom_parent(e);
					update_text(e);
				}
				// not in current path
				else
					e.classList.add("hide");
			}
			// Children maybe
			else {
				// no common path
				if (ex < xmin || ex + fudge >= xmax) {
					e.classList.add("hide");
				}
				else {
					zoom_child(e, xmin, ratio);
					update_text(e);
				}
			}
		}
	}
	function unzoom() {
		unzoombtn.classList.add("hide");
		var el = document.getElementById("frames").children;
		for(var i = 0; i < el.length; i++) {
			el[i].classList.remove("parent");
			el[i].classList.remove("hide");
			zoom_reset(el[i]);
			update_text(el[i]);
		}
	}

	// search
	function reset_search() {
		var el = document.querySelectorAll("#frames rect");
		for (var i = 0; i < el.length; i++) {
			orig_load(el[i], "fill")
		}
	}
	function search_prompt() {
		if (!searching) {
			var term = prompt("Enter a search term (regexp " +
			    "allowed, eg: ^ext4_)", "");
			if (term != null) {
				search(term)
			}
		} else {
			reset_search();
			searching = 0;
			searchbtn.classList.remove("show");
			searchbtn.firstChild.nodeValue = "Search"
			matchedtxt.classList.add("hide");
			matchedtxt.firstChild.nodeValue = ""
		}
	}
	function search(term) {
		var re = new RegExp(term);
		var el = document.getElementById("frames").children;
		var matches = new Object();
		var maxwidth = 0;
		for (var i = 0; i < el.length; i++) {
			var e = el[i];
			var func = g_to_func(e);
			var rect = find_child(e, "rect");
			if (func == null || rect == null)
				continue;

			// Save max width. Only works as we have a root frame
			var w = parseFloat(rect.attributes.width.value);
			if (w > maxwidth)
				maxwidth = w;

			if (func.match(re)) {
				// highlight
				var x = parseFloat(rect.attributes.x.value);
				orig_save(rect, "fill");
				rect.attributes.fill.value = "rgb(230,0,230)";

				// remember matches
				if (matches[x] == undefined) {
					matches[x] = w;
				} else {
					if (w > matches[x]) {
						// overwrite with parent
						matches[x] = w;
					}
				}
				searching = 1;
			}
		}
		if (!searching)
			return;

		searchbtn.classList.add("show");
		searchbtn.firstChild.nodeValue = "Reset Search";

		// calculate percent matched, excluding vertical overlap
		var count = 0;
		var lastx = -1;
		var lastw = 0;
		var keys = Array();
		for (k in matches) {
			if (matches.hasOwnProperty(k))
				keys.push(k);
		}
		// sort the matched frames by their x location
		// ascending, then width descending
		keys.sort(function(a, b){
			return a - b;
		});
		// Step through frames saving only the biggest bottom-up frames
		// thanks to the sort order. This relies on the tree property
		// where children are always smaller than their parents.
		var fudge = 0.0001;	// JavaScript floating point
		for (var k in keys) {
			var x = parseFloat(keys[k]);
			var w = matches[keys[k]];
			if (x >= lastx + lastw - fudge) {
				count += w;
				lastx = x;
				lastw = w;
			}
		}
		// display matched percent
		matchedtxt.classList.remove("hide");
		var pct = 100 * count / maxwidth;
		if (pct != 100) pct = pct.toFixed(1)
		matchedtxt.firstChild.nodeValue = "Matched: " + pct + "%";
	}
]]>
</script>
<rect x="0" y="0" width="100%" height="100%" fill="rgb(240,240,220)"/>
<text id="title" x="600" y="24">Flame Graph</text>
<text id="details" x="10" y="581"> </text>
<text id="unzoom" x="10" y="24" class="hide">Reset Zoom</text>
<text id="search" x="1090" y="24">Search</text>
<text id="matched" x="1090" y="581"> </text>
<g id="frames">
<g>
<title>all (6 samples, 100.00%)</title><rect x="10.0" y="547.0" width="1180.0" height="15" fill="#f87979" rx="2" ry="2"/>
<text x="13.0" y="558.0">all</text>
</g>
<g>
<title>[NIO Selector #0 tid=39171] (1 samples, 16.67%)</title><rect x="10.0" y="531.0" width="196.7" height="15" fill="#e45e5e" rx="2" ry="2"/>
<text x="13.0" y="542.0">[NIO Selector #0 tid=39171]</text>
</g>
<g>
<title>one/nio/server/SelectorThread.run (1 samples, 16.67%)</title><rect x="10.0" y="515.0" width="196.7" height="15" fill="#5bec5b" rx="2" ry="2"/>
<text x="13.0" y="526.0">one/nio/server/SelectorThr..</text>
</g>
<g>
<title>one/nio/net/Session.process (1 samples, 16.67%)</title><rect x="10.0" y="499.0" width="196.7" height="15" fill="#55e655" rx="2" ry="2"/>
<text x="13.0" y="510.0">one/nio/net/Session.process</text>
</g>
<g>
<title>one/nio/http/HttpSession.processRead (1 samples, 16.67%)</title><rect x="10.0" y="483.0" width="196.7" height="15" fill="#56e756" rx="2" ry="2"/>
<text x="13.0" y="494.0">one/nio/http/HttpSession.p..</text>
</g>
<g>
<title>one/nio/http/HttpSession.processHttpBuffer (1 samples, 16.67%)</title><rect x="10.0" y="467.0" width="196.7" height="15" fill="#6cfd6c" rx="2" ry="2"/>
<text x="13.0" y="478.0">one/nio/http/HttpSession.p..</text>
</g>
<g>
<title>one/nio/http/HttpSession.handleParsedRequest (1 samples, 16.67%)</title><rect x="10.0" y="451.0" width="196.7" height="15" fill="#64f564" rx="2" ry="2"/>
<text x="13.0" y="462.0">one/nio/http/HttpSession.h..</text>
</g>
<g>
<title>one/nio/http/HttpServer.handleRequest (1 samples, 16.67%)</title><rect x="10.0" y="435.0" width="196.7" height="15" fill="#65f665" rx="2" ry="2"/>
<text x="13.0" y="446.0">one/nio/http/HttpServer.ha..</text>
</g>
<g>
<title>ru/mail/polis/service/stakenschneider/MyAsyncService.handleDefault (1 samples, 16.67%)</title><rect x="10.0" y="419.0" width="196.7" height="15" fill="#68f968" rx="2" ry="2"/>
<text x="13.0" y="430.0">ru/mail/polis/service/stak..</text>
</g>
<g>
<title>one/nio/http/HttpSession.sendError (1 samples, 16.67%)</title><rect x="10.0" y="403.0" width="196.7" height="15" fill="#5ced5c" rx="2" ry="2"/>
<text x="13.0" y="414.0">one/nio/http/HttpSession.s..</text>
</g>
<g>
<title>one/nio/http/HttpSession.writeResponse (1 samples, 16.67%)</title><rect x="10.0" y="387.0" width="196.7" height="15" fill="#5eef5e" rx="2" ry="2"/>
<text x="13.0" y="398.0">one/nio/http/HttpSession.w..</text>
</g>
<g>
<title>one/nio/net/Session.write (1 samples, 16.67%)</title><rect x="10.0" y="371.0" width="196.7" height="15" fill="#56e756" rx="2" ry="2"/>
<text x="13.0" y="382.0">one/nio/net/Session.write</text>
</g>
<g>
<title>one/nio/net/Session.write (1 samples, 16.67%)</title><rect x="10.0" y="355.0" width="196.7" height="15" fill="#68f968" rx="2" ry="2"/>
<text x="13.0" y="366.0">one/nio/net/Session.write</text>
</g>
<g>
<title>one/nio/net/Session$ArrayQueueItem.write (1 samples, 16.67%)</title><rect x="10.0" y="339.0" width="196.7" height="15" fill="#68f968" rx="2" ry="2"/>
<text x="13.0" y="350.0">one/nio/net/Session$ArrayQ..</text>
</g>
<g>
<title>one/nio/net/JavaSocket.write (1 samples, 16.67%)</title><rect x="10.0" y="323.0" width="196.7" height="15" fill="#59ea59" rx="2" ry="2"/>
<text x="13.0" y="334.0">one/nio/net/JavaSocket.write</text>
</g>
<g>
<title>sun/nio/ch/SocketChannelImpl.write (1 samples, 16.67%)</title><rect x="10.0" y="307.0" width="196.7" height="15" fill="#55e655" rx="2" ry="2"/>
<text x="13.0" y="318.0">sun/nio/ch/SocketChannelIm..</text>
</g>
<g>
<title>sun/nio/ch/IOUtil.write (1 samples, 16.67%)</title><rect x="10.0" y="291.0" width="196.7" height="15" fill="#5dee5d" rx="2" ry="2"/>
<text x="13.0" y="302.0">sun/nio/ch/IOUtil.write</text>
</g>
<g>
<title>sun/nio/ch/IOUtil.write (1 samples, 16.67%)</title><rect x="10.0" y="275.0" width="196.7" height="15" fill="#68f968" rx="2" ry="2"/>
<text x="13.0" y="286.0">sun/nio/ch/IOUtil.write</text>
</g>
<g>
<title>sun/nio/ch/IOUtil.writeFromNativeBuffer (1 samples, 16.67%)</title><rect x="10.0" y="259.0" width="196.7" height="15" fill="#5dee5d" rx="2" ry="2"/>
<text x="13.0" y="270.0">sun/nio/ch/IOUtil.writeFro..</text>
</g>
<g>
<title>sun/nio/ch/SocketDispatcher.write (1 samples, 16.67%)</title><rect x="10.0" y="243.0" width="196.7" height="15" fill="#62f362" rx="2" ry="2"/>
<text x="13.0" y="254.0">sun/nio/ch/SocketDispatche..</text>
</g>
<g>
<title>sun/nio/ch/FileDispatcherImpl.write0 (1 samples, 16.67%)</title><rect x="10.0" y="227.0" width="196.7" height="15" fill="#6bfc6b" rx="2" ry="2"/>
<text x="13.0" y="238.0">sun/nio/ch/FileDispatcherI..</text>
</g>
<g>
<title>write (1 samples, 16.67%)</title><rect x="10.0" y="211.0" width="196.7" height="15" fill="#ee6c6c" rx="2" ry="2"/>
<text x="13.0" y="222.0">write</text>
</g>
<g>
<title>[NIO Selector #2 tid=38659] (2 samples, 33.33%)</title><rect x="206.7" y="531.0" width="393.3" height="15" fill="#f87979" rx="2" ry="2"/>
<text x="209.7" y="542.0">[NIO Selector #2 tid=38659]</text>
</g>
<g>
<title>one/nio/server/SelectorThread.run (2 samples, 33.33%)</title><rect x="206.7" y="515.0" width="393.3" height="15" fill="#6bfc6b" rx="2" ry="2"/>
<text x="209.7" y="526.0">one/nio/server/SelectorThread.run</text>
</g>
<g>
<title>one/nio/net/JavaSelector.select (1 samples, 16.67%)</title><rect x="206.7" y="499.0" width="196.6" height="15" fill="#64f564" rx="2" ry="2"/>
<text x="209.7" y="510.0">one/nio/net/JavaSelector.s..</text>
</g>
<g>
<title>sun/nio/ch/SelectorImpl.select (1 samples, 16.67%)</title><rect x="206.7" y="483.0" width="196.6" height="15" fill="#6afb6a" rx="2" ry="2"/>
<text x="209.7" y="494.0">sun/nio/ch/SelectorImpl.se..</text>
</g>
<g>
<title>sun/nio/ch/SelectorImpl.lockAndDoSelect (1 samples, 16.67%)</title><rect x="206.7" y="467.0" width="196.6" height="15" fill="#65f665" rx="2" ry="2"/>
<text x="209.7" y="478.0">sun/nio/ch/SelectorImpl.lo..</text>
</g>
<g>
<title>sun/nio/ch/KQueueSelectorImpl.doSelect (1 samples, 16.67%)</title><rect x="206.7" y="451.0" width="196.6" height="15" fill="#57e857" rx="2" ry="2"/>
<text x="209.7" y="462.0">sun/nio/ch/KQueueSelectorI..</text>
</g>
<g>
<title>sun/nio/ch/SelectorImpl.processDeregisterQueue (1 samples, 16.67%)</title><rect x="206.7" y="435.0" width="196.6" height="15" fill="#64f564" rx="2" ry="2"/>
<text x="209.7" y="446.0">sun/nio/ch/SelectorImpl.pr..</text>
</g>
<g>
<title>sun/nio/ch/SocketChannelImpl.kill (1 samples, 16.67%)</title><rect x="206.7" y="419.0" width="196.6" height="15" fill="#58e958" rx="2" ry="2"/>
<text x="209.7" y="430.0">sun/nio/ch/SocketChannelIm..</text>
</g>
<g>
<title>sun/nio/ch/SocketDispatcher.close (1 samples, 16.67%)</title><rect x="206.7" y="403.0" width="196.6" height="15" fill="#5aeb5a" rx="2" ry="2"/>
<text x="209.7" y="414.0">sun/nio/ch/SocketDispatche..</text>
</g>
<g>
<title>sun/nio/ch/FileDispatcherImpl.close0 (1 samples, 16.67%)</title><rect x="206.7" y="387.0" width="196.6" height="15" fill="#65f665" rx="2" ry="2"/>
<text x="209.7" y="398.0">sun/nio/ch/FileDispatcherI..</text>
</g>
<g>
<title>rcmd_af.canonnamebuf (1 samples, 16.67%)</title><rect x="206.7" y="371.0" width="196.6" height="15" fill="#f17070" rx="2" ry="2"/>
<text x="209.7" y="382.0">rcmd_af.canonnamebuf</text>
</g>
<g>
<title>one/nio/net/Session.process (1 samples, 16.67%)</title><rect x="403.3" y="499.0" width="196.7" height="15" fill="#63f463" rx="2" ry="2"/>
<text x="406.3" y="510.0">one/nio/net/Session.process</text>
</g>
<g>
<title>one/nio/http/HttpSession.processRead (1 samples, 16.67%)</title><rect x="403.3" y="483.0" width="196.7" height="15" fill="#58e958" rx="2" ry="2"/>
<text x="406.3" y="494.0">one/nio/http/HttpSession.p..</text>
</g>
<g>
<title>one/nio/http/HttpSession.processHttpBuffer (1 samples, 16.67%)</title><rect x="403.3" y="467.0" width="196.7" height="15" fill="#5aeb5a" rx="2" ry="2"/>
<text x="406.3" y="478.0">one/nio/http/HttpSession.p..</text>
</g>
<g>
<title>one/nio/http/HttpSession.handleParsedRequest (1 samples, 16.67%)</title><rect x="403.3" y="451.0" width="196.7" height="15" fill="#64f564" rx="2" ry="2"/>
<text x="406.3" y="462.0">one/nio/http/HttpSession.h..</text>
</g>
<g>
<title>one/nio/http/HttpServer.handleRequest (1 samples, 16.67%)</title><rect x="403.3" y="435.0" width="196.7" height="15" fill="#68f968" rx="2" ry="2"/>
<text x="406.3" y="446.0">one/nio/http/HttpServer.ha..</text>
</g>
<g>
<title>ru/mail/polis/service/stakenschneider/MyAsyncService.handleDefault (1 samples, 16.67%)</title><rect x="403.3" y="419.0" width="196.7" height="15" fill="#5dee5d" rx="2" ry="2"/>
<text x="406.3" y="430.0">ru/mail/polis/service/stak..</text>
</g>
<g>
<title>one/nio/http/HttpSession.sendError (1 samples, 16.67%)</title><rect x="403.3" y="403.0" width="196.7" height="15" fill="#61f261" rx="2" ry="2"/>
<text x="406.3" y="414.0">one/nio/http/HttpSession.s..</text>
</g>
<g>
<title>one/nio/http/HttpSession.writeResponse (1 samples, 16.67%)</title><rect x="403.3" y="387.0" width="196.7" height="15" fill="#56e756" rx="2" ry="2"/>
<text x="406.3" y="398.0">one/nio/http/HttpSession.w..</text>
</g>
<g>
<title>one/nio/net/Session.write (1 samples, 16.67%)</title><rect x="403.3" y="371.0" width="196.7" height="15" fill="#67f867" rx="2" ry="2"/>
<text x="406.3" y="382.0">one/nio/net/Session.write</text>
</g>
<g>
<title>one/nio/net/Session.write (1 samples, 16.67%)</title><rect x="403.3" y="355.0" width="196.7" height="15" fill="#64f564" rx="2" ry="2"/>
<text x="406.3" y="366.0">one/nio/net/Session.write</text>
</g>
<g>
<title>one/nio/net/Session$ArrayQueueItem.write (1 samples, 16.67%)</title><rect x="403.3" y="339.0" width="196.7" height="15" fill="#52e352" rx="2" ry="2"/>
<text x="406.3" y="350.0">one/nio/net/Session$ArrayQ..</text>
</g>
<g>
<title>one/nio/net/JavaSocket.write (1 samples, 16.67%)</title><rect x="403.3" y="323.0" width="196.7" height="15" fill="#6cfd6c" rx="2" ry="2"/>
<text x="406.3" y="334.0">one/nio/net/JavaSocket.write</text>
</g>
<g>
<title>sun/nio/ch/SocketChannelImpl.write (1 samples, 16.67%)</title><rect x="403.3" y="307.0" width="196.7" height="15" fill="#57e857" rx="2" ry="2"/>
<text x="406.3" y="318.0">sun/nio/ch/SocketChannelIm..</text>
</g>
<g>
<title>sun/nio/ch/IOUtil.write (1 samples, 16.67%)</title><rect x="403.3" y="291.0" width="196.7" height="15" fill="#5dee5d" rx="2" ry="2"/>
<text x="406.3" y="302.0">sun/nio/ch/IOUtil.write</text>
</g>
<g>
<title>sun/nio/ch/IOUtil.write (1 samples, 16.67%)</title><rect x="403.3" y="275.0" width="196.7" height="15" fill="#54e554" rx="2" ry="2"/>
<text x="406.3" y="286.0">sun/nio/ch/IOUtil.write</text>
</g>
<g>
<title>sun/nio/ch/IOUtil.writeFromNativeBuffer (1 samples, 16.67%)</title><rect x="403.3" y="259.0" width="196.7" height="15" fill="#66f766" rx="2" ry="2"/>
<text x="406.3" y="270.0">sun/nio/ch/IOUtil.writeFro..</text>
</g>
<g>
<title>sun/nio/ch/SocketDispatcher.write (1 samples, 16.67%)</title><rect x="403.3" y="243.0" width="196.7" height="15" fill="#5ced5c" rx="2" ry="2"/>
<text x="406.3" y="254.0">sun/nio/ch/SocketDispatche..</text>
</g>
<g>
<title>sun/nio/ch/FileDispatcherImpl.write0 (1 samples, 16.67%)</title><rect x="403.3" y="227.0" width="196.7" height="15" fill="#64f564" rx="2" ry="2"/>
<text x="406.3" y="238.0">sun/nio/ch/FileDispatcherI..</text>
</g>
<g>
<title>write (1 samples, 16.67%)</title><rect x="403.3" y="211.0" width="196.7" height="15" fill="#fe8181" rx="2" ry="2"/>
<text x="406.3" y="222.0">write</text>
</g>
<g>
<title>[tid=13315] (1 samples, 16.67%)</title><rect x="600.0" y="531.0" width="196.7" height="15" fill="#ed6a6a" rx="2" ry="2"/>
<text x="603.0" y="542.0">[tid=13315]</text>
</g>
<g>
<title>thread_start (1 samples, 16.67%)</title><rect x="600.0" y="515.0" width="196.7" height="15" fill="#e25c5c" rx="2" ry="2"/>
<text x="603.0" y="526.0">thread_start</text>
</g>
<g>
<title>_pthread_start (1 samples, 16.67%)</title><rect x="600.0" y="499.0" width="196.7" height="15" fill="#ea6666" rx="2" ry="2"/>
<text x="603.0" y="510.0">_pthread_start</text>
</g>
<g>
<title>_pthread_body (1 samples, 16.67%)</title><rect x="600.0" y="483.0" width="196.7" height="15" fill="#f06e6e" rx="2" ry="2"/>
<text x="603.0" y="494.0">_pthread_body</text>
</g>
<g>
<title>thread_native_entry(Thread*) (1 samples, 16.67%)</title><rect x="600.0" y="467.0" width="196.7" height="15" fill="#e66060" rx="2" ry="2"/>
<text x="603.0" y="478.0">thread_native_entry(Thread*)</text>
</g>
<g>
<title>Thread::call_run() (1 samples, 16.67%)</title><rect x="600.0" y="451.0" width="196.7" height="15" fill="#cdcd3d" rx="2" ry="2"/>
<text x="603.0" y="462.0">Thread::call_run()</text>
</g>
<g>
<title>ConcurrentGCThread::run() (1 samples, 16.67%)</title><rect x="600.0" y="435.0" width="196.7" height="15" fill="#d2d23f" rx="2" ry="2"/>
<text x="603.0" y="446.0">ConcurrentGCThread::run()</text>
</g>
<g>
<title>G1YoungRemSetSamplingThread::run_service() (1 samples, 16.67%)</title><rect x="600.0" y="419.0" width="196.7" height="15" fill="#e3e345" rx="2" ry="2"/>
<text x="603.0" y="430.0">G1YoungRemSetSamplingThrea..</text>
</g>
<g>
<title>G1YoungRemSetSamplingThread::sleep_before_next_cycle() (1 samples, 16.67%)</title><rect x="600.0" y="403.0" width="196.7" height="15" fill="#d8d841" rx="2" ry="2"/>
<text x="603.0" y="414.0">G1YoungRemSetSamplingThrea..</text>
</g>
<g>
<title>Monitor::wait(bool, long, bool) (1 samples, 16.67%)</title><rect x="600.0" y="387.0" width="196.7" height="15" fill="#cece3e" rx="2" ry="2"/>
<text x="603.0" y="398.0">Monitor::wait(bool, long, ..</text>
</g>
<g>
<title>Monitor::IWait(Thread*, long) (1 samples, 16.67%)</title><rect x="600.0" y="371.0" width="196.7" height="15" fill="#dbdb42" rx="2" ry="2"/>
<text x="603.0" y="382.0">Monitor::IWait(Thread*, lo..</text>
</g>
<g>
<title>os::PlatformEvent::park(long) (1 samples, 16.67%)</title><rect x="600.0" y="355.0" width="196.7" height="15" fill="#cccc3d" rx="2" ry="2"/>
<text x="603.0" y="366.0">os::PlatformEvent::park(lo..</text>
</g>
<g>
<title>__psynch_cvwait (1 samples, 16.67%)</title><rect x="600.0" y="339.0" width="196.7" height="15" fill="#f57575" rx="2" ry="2"/>
<text x="603.0" y="350.0">__psynch_cvwait</text>
</g>
<g>
<title>[tid=22531] (1 samples, 16.67%)</title><rect x="796.7" y="531.0" width="196.6" height="15" fill="#f47474" rx="2" ry="2"/>
<text x="799.7" y="542.0">[tid=22531]</text>
</g>
<g>
<title>thread_start (1 samples, 16.67%)</title><rect x="796.7" y="515.0" width="196.6" height="15" fill="#e55f5f" rx="2" ry="2"/>
<text x="799.7" y="526.0">thread_start</text>
</g>
<g>
<title>_pthread_start (1 samples, 16.67%)</title><rect x="796.7" y="499.0" width="196.6" height="15" fill="#ee6b6b" rx="2" ry="2"/>
<text x="799.7" y="510.0">_pthread_start</text>
</g>
<g>
<title>_pthread_body (1 samples, 16.67%)</title><rect x="796.7" y="483.0" width="196.6" height="15" fill="#fc7e7e" rx="2" ry="2"/>
<text x="799.7" y="494.0">_pthread_body</text>
</g>
<g>
<title>thread_native_entry(Thread*) (1 samples, 16.67%)</title><rect x="796.7" y="467.0" width="196.6" height="15" fill="#f97b7b" rx="2" ry="2"/>
<text x="799.7" y="478.0">thread_native_entry(Thread*)</text>
</g>
<g>
<title>Thread::call_run() (1 samples, 16.67%)</title><rect x="796.7" y="451.0" width="196.6" height="15" fill="#dcdc42" rx="2" ry="2"/>
<text x="799.7" y="462.0">Thread::call_run()</text>
</g>
<g>
<title>JavaThread::run() (1 samples, 16.67%)</title><rect x="796.7" y="435.0" width="196.6" height="15" fill="#dada42" rx="2" ry="2"/>
<text x="799.7" y="446.0">JavaThread::run()</text>
</g>
<g>
<title>JavaThread::thread_main_inner() (1 samples, 16.67%)</title><rect x="796.7" y="419.0" width="196.6" height="15" fill="#cece3e" rx="2" ry="2"/>
<text x="799.7" y="430.0">JavaThread::thread_main_in..</text>
</g>
<g>
<title>CompileBroker::compiler_thread_loop() (1 samples, 16.67%)</title><rect x="796.7" y="403.0" width="196.6" height="15" fill="#e5e545" rx="2" ry="2"/>
<text x="799.7" y="414.0">CompileBroker::compiler_th..</text>
</g>
<g>
<title>CompileBroker::invoke_compiler_on_method(CompileTask*) (1 samples, 16.67%)</title><rect x="796.7" y="387.0" width="196.6" height="15" fill="#e3e345" rx="2" ry="2"/>
<text x="799.7" y="398.0">CompileBroker::invoke_comp..</text>
</g>
<g>
<title>Compiler::compile_method(ciEnv*, ciMethod*, int, DirectiveSet*) (1 samples, 16.67%)</title><rect x="796.7" y="371.0" width="196.6" height="15" fill="#dbdb42" rx="2" ry="2"/>
<text x="799.7" y="382.0">Compiler::compile_method(c..</text>
</g>
<g>
<title>Compilation::Compilation(AbstractCompiler*, ciEnv*, ciMethod*, int, BufferBlob*, DirectiveSet*) (1 samples, 16.67%)</title><rect x="796.7" y="355.0" width="196.6" height="15" fill="#cbcb3d" rx="2" ry="2"/>
<text x="799.7" y="366.0">Compilation::Compilation(A..</text>
</g>
<g>
<title>Compilation::compile_method() (1 samples, 16.67%)</title><rect x="796.7" y="339.0" width="196.6" height="15" fill="#d1d13f" rx="2" ry="2"/>
<text x="799.7" y="350.0">Compilation::compile_metho..</text>
</g>
<g>
<title>Compilation::compile_java_method() (1 samples, 16.67%)</title><rect x="796.7" y="323.0" width="196.6" height="15" fill="#cdcd3d" rx="2" ry="2"/>
<text x="799.7" y="334.0">Compilation::compile_java_..</text>
</g>
<g>
<title>Compilation::build_hir() (1 samples, 16.67%)</title><rect x="796.7" y="307.0" width="196.6" height="15" fill="#dede43" rx="2" ry="2"/>
<text x="799.7" y="318.0">Compilation::build_hir()</text>
</g>
<g>
<title>IR::IR(Compilation*, ciMethod*, int) (1 samples, 16.67%)</title><rect x="796.7" y="291.0" width="196.6" height="15" fill="#d3d33f" rx="2" ry="2"/>
<text x="799.7" y="302.0">IR::IR(Compilation*, ciMet..</text>
</g>
<g>
<title>IRScope::IRScope(Compilation*, IRScope*, int, ciMethod*, int, bool) (1 samples, 16.67%)</title><rect x="796.7" y="275.0" width="196.6" height="15" fill="#e0e044" rx="2" ry="2"/>
<text x="799.7" y="286.0">IRScope::IRScope(Compilati..</text>
</g>
<g>
<title>GraphBuilder::GraphBuilder(Compilation*, IRScope*) (1 samples, 16.67%)</title><rect x="796.7" y="259.0" width="196.6" height="15" fill="#cbcb3d" rx="2" ry="2"/>
<text x="799.7" y="270.0">GraphBuilder::GraphBuilder..</text>
</g>
<g>
<title>GraphBuilder::iterate_all_blocks(bool) (1 samples, 16.67%)</title><rect x="796.7" y="243.0" width="196.6" height="15" fill="#dfdf43" rx="2" ry="2"/>
<text x="799.7" y="254.0">GraphBuilder::iterate_all_..</text>
</g>
<g>
<title>GraphBuilder::iterate_bytecodes_for_block(int) (1 samples, 16.67%)</title><rect x="796.7" y="227.0" width="196.6" height="15" fill="#e1e144" rx="2" ry="2"/>
<text x="799.7" y="238.0">GraphBuilder::iterate_byte..</text>
</g>
<g>
<title>GraphBuilder::invoke(Bytecodes::Code) (1 samples, 16.67%)</title><rect x="796.7" y="211.0" width="196.6" height="15" fill="#e1e144" rx="2" ry="2"/>
<text x="799.7" y="222.0">GraphBuilder::invoke(Bytec..</text>
</g>
<g>
<title>GraphBuilder::try_inline(ciMethod*, bool, bool, Bytecodes::Code, Instruction*) (1 samples, 16.67%)</title><rect x="796.7" y="195.0" width="196.6" height="15" fill="#cfcf3e" rx="2" ry="2"/>
<text x="799.7" y="206.0">GraphBuilder::try_inline(c..</text>
</g>
<g>
<title>GraphBuilder::try_inline_full(ciMethod*, bool, bool, Bytecodes::Code, Instruction*) (1 samples, 16.67%)</title><rect x="796.7" y="179.0" width="196.6" height="15" fill="#e2e244" rx="2" ry="2"/>
<text x="799.7" y="190.0">GraphBuilder::try_inline_f..</text>
</g>
<g>
<title>GraphBuilder::iterate_all_blocks(bool) (1 samples, 16.67%)</title><rect x="796.7" y="163.0" width="196.6" height="15" fill="#e1e144" rx="2" ry="2"/>
<text x="799.7" y="174.0">GraphBuilder::iterate_all_..</text>
</g>
<g>
<title>GraphBuilder::iterate_bytecodes_for_block(int) (1 samples, 16.67%)</title><rect x="796.7" y="147.0" width="196.6" height="15" fill="#dbdb42" rx="2" ry="2"/>
<text x="799.7" y="158.0">GraphBuilder::iterate_byte..</text>
</g>
<g>
<title>GraphBuilder::invoke(Bytecodes::Code) (1 samples, 16.67%)</title><rect x="796.7" y="131.0" width="196.6" height="15" fill="#e3e345" rx="2" ry="2"/>
<text x="799.7" y="142.0">GraphBuilder::invoke(Bytec..</text>
</g>
<g>
<title>GraphBuilder::try_inline(ciMethod*, bool, bool, Bytecodes::Code, Instruction*) (1 samples, 16.67%)</title><rect x="796.7" y="115.0" width="196.6" height="15" fill="#dddd43" rx="2" ry="2"/>
<text x="799.7" y="126.0">GraphBuilder::try_inline(c..</text>
</g>
<g>
<title>GraphBuilder::try_inline_full(ciMethod*, bool, bool, Bytecodes::Code, Instruction*) (1 samples, 16.67%)</title><rect x="796.7" y="99.0" width="196.6" height="15" fill="#e1e144" rx="2" ry="2"/>
<text x="799.7" y="110.0">GraphBuilder::try_inline_f..</text>
</g>
<g>
<title>GraphBuilder::push_scope(ciMethod*, BlockBegin*) (1 samples, 16.67%)</title><rect x="796.7" y="83.0" width="196.6" height="15" fill="#d7d741" rx="2" ry="2"/>
<text x="799.7" y="94.0">GraphBuilder::push_scope(c..</text>
</g>
<g>
<title>IRScope::IRScope(Compilation*, IRScope*, int, ciMethod*, int, bool) (1 samples, 16.67%)</title><rect x="796.7" y="67.0" width="196.6" height="15" fill="#dbdb42" rx="2" ry="2"/>
<text x="799.7" y="78.0">IRScope::IRScope(Compilati..</text>
</g>
<g>
<title>XHandlers::XHandlers(ciMethod*) (1 samples, 16.67%)</title><rect x="796.7" y="51.0" width="196.6" height="15" fill="#e2e244" rx="2" ry="2"/>
<text x="799.7" y="62.0">XHandlers::XHandlers(ciMet..</text>
</g>
<g>
<title>ExceptionTable::ExceptionTable(Method const*) (1 samples, 16.67%)</title><rect x="796.7" y="35.0" width="196.6" height="15" fill="#cece3e" rx="2" ry="2"/>
<text x="799.7" y="46.0">ExceptionTable::ExceptionT..</text>
</g>
<g>
<title>[tid=43267] (1 samples, 16.67%)</title><rect x="993.3" y="531.0" width="196.7" height="15" fill="#eb6767" rx="2" ry="2"/>
<text x="996.3" y="542.0">[tid=43267]</text>
</g>
<g>
<title>thread_start (1 samples, 16.67%)</title><rect x="993.3" y="515.0" width="196.7" height="15" fill="#ef6d6d" rx="2" ry="2"/>
<text x="996.3" y="526.0">thread_start</text>
</g>
<g>
<title>_pthread_start (1 samples, 16.67%)</title><rect x="993.3" y="499.0" width="196.7" height="15" fill="#f47474" rx="2" ry="2"/>
<text x="996.3" y="510.0">_pthread_start</text>
</g>
<g>
<title>_pthread_body (1 samples, 16.67%)</title><rect x="993.3" y="483.0" width="196.7" height="15" fill="#e45e5e" rx="2" ry="2"/>
<text x="996.3" y="494.0">_pthread_body</text>
</g>
<g>
<title>thread_native_entry(Thread*) (1 samples, 16.67%)</title><rect x="993.3" y="467.0" width="196.7" height="15" fill="#fc7e7e" rx="2" ry="2"/>
<text x="996.3" y="478.0">thread_native_entry(Thread*)</text>
</g>
<g>
<title>Thread::call_run() (1 samples, 16.67%)</title><rect x="993.3" y="451.0" width="196.7" height="15" fill="#c8c83c" rx="2" ry="2"/>
<text x="996.3" y="462.0">Thread::call_run()</text>
</g>
<g>
<title>JavaThread::run() (1 samples, 16.67%)</title><rect x="993.3" y="435.0" width="196.7" height="15" fill="#e2e244" rx="2" ry="2"/>
<text x="996.3" y="446.0">JavaThread::run()</text>
</g>
<g>
<title>JavaThread::thread_main_inner() (1 samples, 16.67%)</title><rect x="993.3" y="419.0" width="196.7" height="15" fill="#d9d941" rx="2" ry="2"/>
<text x="996.3" y="430.0">JavaThread::thread_main_in..</text>
</g>
<g>
<title>CompileBroker::compiler_thread_loop() (1 samples, 16.67%)</title><rect x="993.3" y="403.0" width="196.7" height="15" fill="#d9d941" rx="2" ry="2"/>
<text x="996.3" y="414.0">CompileBroker::compiler_th..</text>
</g>
<g>
<title>CompileQueue::get() (1 samples, 16.67%)</title><rect x="993.3" y="387.0" width="196.7" height="15" fill="#e1e144" rx="2" ry="2"/>
<text x="996.3" y="398.0">CompileQueue::get()</text>
</g>
<g>
<title>Monitor::wait(bool, long, bool) (1 samples, 16.67%)</title><rect x="993.3" y="371.0" width="196.7" height="15" fill="#dede43" rx="2" ry="2"/>
<text x="996.3" y="382.0">Monitor::wait(bool, long, ..</text>
</g>
<g>
<title>Monitor::IWait(Thread*, long) (1 samples, 16.67%)</title><rect x="993.3" y="355.0" width="196.7" height="15" fill="#d1d13f" rx="2" ry="2"/>
<text x="996.3" y="366.0">Monitor::IWait(Thread*, lo..</text>
</g>
<g>
<title>os::PlatformEvent::park(long) (1 samples, 16.67%)</title><rect x="993.3" y="339.0" width="196.7" height="15" fill="#d7d741" rx="2" ry="2"/>
<text x="996.3" y="350.0">os::PlatformEvent::park(lo..</text>
</g>
<g>
<title>__psynch_cvwait (1 samples, 16.67%)</title><rect x="993.3" y="323.0" width="196.7" height="15" fill="#e66060" rx="2" ry="2"/>
<text x="996.3" y="334.0">__psynch_cvwait</text>
</g>
</g>
</svg>
